<svg xmlns="http://www.w3.org/2000/svg" width="47.471" height="47.472" viewBox="0 0 47.471 47.472">
  <path id="iconfinder_remove-01_186389" d="M36.976,28.59,50.337,15.23a5.057,5.057,0,0,0,0-7.125l-1.782-1.78a5.047,5.047,0,0,0-7.123,0L28.07,19.684,14.708,6.322a5.051,5.051,0,0,0-7.123,0L5.8,8.1a5.057,5.057,0,0,0,0,7.125l13.36,13.36L5.8,41.949a5.055,5.055,0,0,0,0,7.123l1.782,1.782a5.051,5.051,0,0,0,7.123,0L28.07,37.5l13.362,13.36a5.051,5.051,0,0,0,7.123,0l1.782-1.782a5.055,5.055,0,0,0,0-7.123Z" transform="translate(-4.334 -4.853)" fill="#e2e2e2"/>
</svg>
