<svg xmlns="http://www.w3.org/2000/svg" width="92" height="92" viewBox="0 0 92 92">
  <path id="iconfinder_Social_Media-02_2274398" d="M230.8,154.8H170.6a15.919,15.919,0,0,0-15.9,15.9v60.2a15.919,15.919,0,0,0,15.9,15.9h32.348V213.953h-9.086v-13.63h9.086v-8.859a17.237,17.237,0,0,1,17.219-17.219h11.085v13.63H220.168a3.6,3.6,0,0,0-3.589,3.589v8.859h11.676v13.63H216.579v32.8H230.8a15.919,15.919,0,0,0,15.9-15.9V170.7A15.919,15.919,0,0,0,230.8,154.8Z" transform="translate(-154.7 -154.8)" fill="#3e55c4"/>
</svg>
