<svg xmlns="http://www.w3.org/2000/svg" width="48" height="40" viewBox="0 0 48 40">
  <path id="iconfinder_sign-in_1608411" d="M165,276a1.922,1.922,0,0,1-.594,1.406l-17,17A2,2,0,0,1,144,293v-9H130a2.028,2.028,0,0,1-2-2V270a2.028,2.028,0,0,1,2-2h14v-9a1.989,1.989,0,0,1,3.406-1.406l17,17A1.922,1.922,0,0,1,165,276Zm11-11v22a9.016,9.016,0,0,1-9,9H157a1.014,1.014,0,0,1-1-1q0-.125-.031-.625a7.774,7.774,0,0,1-.016-.828,5.248,5.248,0,0,1,.094-.734,1.035,1.035,0,0,1,.313-.609A.945.945,0,0,1,157,292h10a5.015,5.015,0,0,0,5-5V265a5.015,5.015,0,0,0-5-5h-9.75l-.359-.031-.359-.094-.25-.172-.219-.281L156,259q0-.125-.031-.625a7.774,7.774,0,0,1-.016-.828,5.248,5.248,0,0,1,.094-.734,1.035,1.035,0,0,1,.313-.609A.945.945,0,0,1,157,256h10a9.016,9.016,0,0,1,9,9Z" transform="translate(-128 -256)" fill="#1ba391"/>
</svg>
