<svg xmlns="http://www.w3.org/2000/svg" width="80" height="64" viewBox="0 0 80 64">
  <path id="user-plus-solid" d="M78,26H70V18a2.006,2.006,0,0,0-2-2H64a2.006,2.006,0,0,0-2,2v8H54a2.006,2.006,0,0,0-2,2v4a2.006,2.006,0,0,0,2,2h8v8a2.006,2.006,0,0,0,2,2h4a2.006,2.006,0,0,0,2-2V34h8a2.006,2.006,0,0,0,2-2V28A2.006,2.006,0,0,0,78,26ZM28,32A16,16,0,1,0,12,16,16,16,0,0,0,28,32Zm11.2,4H37.112a21.759,21.759,0,0,1-18.225,0H16.8A16.8,16.8,0,0,0,0,52.8V58a6,6,0,0,0,6,6H50a6,6,0,0,0,6-6V52.8A16.8,16.8,0,0,0,39.2,36Z" fill="#1ba391"/>
</svg>
