<svg id="iconfinder_thinking_emoji_wondering_5263646" xmlns="http://www.w3.org/2000/svg" width="80" height="80.185" viewBox="0 0 80 80.185">
  <path id="Path_61" data-name="Path 61" d="M40,0A40,40,0,1,1,0,40,40,40,0,0,1,40,0Z" fill="#1ba391"/>
  <g id="Group_6" data-name="Group 6" transform="translate(28.895 42.832)">
    <path id="Path_52" data-name="Path 52" d="M23.485,36.835a12.417,12.417,0,0,1,5.638-2.38,13.919,13.919,0,0,1,6.014.125,13.956,13.956,0,0,1,5.638,2.38,14.858,14.858,0,0,1,4.135,4.26,1.049,1.049,0,0,1-.376,1.5,1.1,1.1,0,0,1-.877.125h-.125c-1.879-.5-3.383-1.128-4.886-1.5-1.5-.5-3.007-.752-4.51-1.128-1.5-.251-3.007-.5-4.636-.626-1.5-.125-3.258-.251-4.886-.376h-.251a1.488,1.488,0,0,1-1.253-1.5A.733.733,0,0,1,23.485,36.835Z" transform="translate(-23.062 -34.186)" fill="#1a1a54"/>
  </g>
  <circle id="Ellipse_61" data-name="Ellipse 61" cx="9.397" cy="9.397" r="9.397" transform="translate(48.612 19.796)" fill="#fff"/>
  <circle id="Ellipse_62" data-name="Ellipse 62" cx="9.397" cy="9.397" r="9.397" transform="translate(48.612 19.796)" fill="#fff"/>
  <circle id="Ellipse_63" data-name="Ellipse 63" cx="9.397" cy="9.397" r="9.397" transform="translate(48.612 19.796)" fill="#fff"/>
  <circle id="Ellipse_64" data-name="Ellipse 64" cx="5.638" cy="5.638" r="5.638" transform="translate(51.369 20.923)" fill="#1a1a54"/>
  <circle id="Ellipse_65" data-name="Ellipse 65" cx="9.397" cy="9.397" r="9.397" transform="translate(17.54 15.411)" fill="#fff"/>
  <circle id="Ellipse_66" data-name="Ellipse 66" cx="5.638" cy="5.638" r="5.638" transform="translate(20.422 16.538)" fill="#1a1a54"/>
  <g id="Group_12" data-name="Group 12" transform="translate(0 43.715)">
    <g id="Group_7" data-name="Group 7" transform="translate(0.125)">
      <path id="Path_53" data-name="Path 53" d="M7.617,37.032c.626,3.258,1.128,6.515,1.629,9.9.251,1.629.5,3.383.626,5.012.125,1.754.376,3.383.376,5.262v.125A5.075,5.075,0,0,1,.1,57.454a5.139,5.139,0,0,1,.125-1.378,41.178,41.178,0,0,0,.877-4.51c.251-1.5.5-3.132.626-4.761.376-3.258.752-6.515,1-9.647h0A2.485,2.485,0,0,1,5.362,34.9,2.414,2.414,0,0,1,7.617,37.032Z" transform="translate(-0.1 -34.892)" fill="#e8e8ee"/>
    </g>
    <g id="Group_8" data-name="Group 8" transform="translate(11.401 31.208)">
      <path id="Path_54" data-name="Path 54" d="M21.253,65.062H11.731a2.631,2.631,0,0,1,0-5.262h9.522a2.631,2.631,0,0,1,0,5.262Z" transform="translate(-9.1 -59.8)" fill="#e8e8ee"/>
    </g>
    <path id="Path_55" data-name="Path 55" d="M25.434,55.621c0-7.016-5.763-9.021-12.779-9.021S0,48.6,0,55.621a12.717,12.717,0,1,0,25.434,0Z" transform="translate(0 -31.931)" fill="#e8e8ee"/>
    <line id="Line_11" data-name="Line 11" x1="4.761" transform="translate(18.292 31.208)" fill="none" stroke="#d1d1dc" stroke-linecap="round" stroke-miterlimit="10" stroke-width="1.817"/>
    <g id="Group_9" data-name="Group 9" transform="translate(15.028 24.749)">
      <path id="Path_56" data-name="Path 56" d="M12.628,61.48c-1.378,0,0-.877-.5-2.255a3.111,3.111,0,0,1,2.13-3.884c3.633-1,8.52-.626,9.146-.626a3.21,3.21,0,0,1-.626,6.39c-1.128-.125-7.141-.125-9.271.5C13.254,61.6,12.878,61.48,12.628,61.48Z" transform="translate(-11.995 -54.645)" fill="#e8e8ee"/>
    </g>
    <g id="Group_10" data-name="Group 10" transform="translate(17.319 23.816)">
      <path id="Path_57" data-name="Path 57" d="M22.188,55.654a33.77,33.77,0,0,0-3.508.5,24.724,24.724,0,0,0-3.258.877h0a1.152,1.152,0,0,1-.877-2.13h.125a19.976,19.976,0,0,1,3.759-.752c1.253-.125,2.506-.251,3.759-.251a.856.856,0,0,1,.877.877.941.941,0,0,1-.877.877Z" transform="translate(-13.823 -53.9)" fill="#d1d1dc"/>
    </g>
    <g id="Group_11" data-name="Group 11" transform="translate(15.64 17.927)">
      <path id="Path_58" data-name="Path 58" d="M13.883,57.469c-1.253,0-.626-1-1.128-2.255a3.363,3.363,0,0,1,1.754-4.385A27.77,27.77,0,0,1,23.53,49.2h.125a3.52,3.52,0,0,1,3.383,3.258,3.454,3.454,0,0,1-3.258,3.508c-1.128,0-7.141.752-9.146,1.629C14.258,57.594,14.384,57.469,13.883,57.469Z" transform="translate(-12.483 -49.2)" fill="#e8e8ee"/>
    </g>
    <path id="Path_59" data-name="Path 59" d="M22.77,48.9A24.392,24.392,0,0,0,14,51.782" transform="translate(3.54 -31.349)" fill="none" stroke="#d1d1dc" stroke-linecap="round" stroke-miterlimit="10" stroke-width="1.817"/>
    <path id="Path_60" data-name="Path 60" d="M7.989,47.108a57.388,57.388,0,0,1,6.139-1.879c1-.251,2-.626,3.132-.877a19.626,19.626,0,0,1,3.759-.626c1.253-.125,2.506-.125,3.759-.125.626,0,1.253.125,1.879.125l1.629.251c2.13.251,4.26.626,6.39,1a2.387,2.387,0,0,1,2,2.756,2.529,2.529,0,0,1-2.255,2.13c-2.13.125-4.385.251-6.515.251H26.281a5.139,5.139,0,0,0-1.378.125,19.451,19.451,0,0,0-2.631.5,14.739,14.739,0,0,0-2.506.877c-.877.376-2,.752-3.007,1.128-2,.752-4.009,1.5-6.139,2.255A4.3,4.3,0,0,1,5.233,52.37,4.4,4.4,0,0,1,7.989,47.108Z" transform="translate(1.282 -32.689)" fill="#e8e8ee"/>
  </g>
</svg>
