<svg id="iconfinder_2_social_2609552" xmlns="http://www.w3.org/2000/svg" width="89.042" height="89.042" viewBox="0 0 89.042 89.042">
  <path id="Path_64" data-name="Path 64" d="M89.042,69.059A19.984,19.984,0,0,1,69.059,89.042H19.982A20,20,0,0,1,0,69.059V19.982A20,20,0,0,1,19.982,0H69.059A20,20,0,0,1,89.042,19.982Z" fill="#34c4f3"/>
  <path id="Path_65" data-name="Path 65" d="M172.48,212.548a10.167,10.167,0,0,1-9.426-7.026,9.919,9.919,0,0,0,4.348-.139c.035,0,.07-.035.139-.07a10.119,10.119,0,0,1-6.574-4.643,9.874,9.874,0,0,1-1.478-5.391,10.049,10.049,0,0,0,4.5,1.235,10.241,10.241,0,0,1-4.174-6.139,10.028,10.028,0,0,1,1.078-7.339,28.935,28.935,0,0,0,20.886,10.574c-.052-.4-.122-.748-.157-1.113a9.86,9.86,0,0,1,1.478-6.626,9.725,9.725,0,0,1,6.869-4.574,9.9,9.9,0,0,1,8.869,2.817.519.519,0,0,0,.539.157,20.59,20.59,0,0,0,5.9-2.261c.052-.017.087-.052.139-.07h.07a10.407,10.407,0,0,1-4.33,5.513,19.185,19.185,0,0,0,5.635-1.513c.017.017.035.035.035.052-.383.5-.765,1.026-1.165,1.513a20.063,20.063,0,0,1-3.687,3.5.349.349,0,0,0-.174.313,27.9,27.9,0,0,1-.191,4.5A30.118,30.118,0,0,1,199,204.826a29.246,29.246,0,0,1-5.478,7.982,27.159,27.159,0,0,1-13.913,7.756,32.381,32.381,0,0,1-5.635.678,28.653,28.653,0,0,1-16.208-4.348c-.07-.035-.122-.087-.243-.157a20.451,20.451,0,0,0,10.122-1.391A19.248,19.248,0,0,0,172.48,212.548Z" transform="translate(-136.272 -156.705)" fill="#fff" fill-rule="evenodd"/>
</svg>
